<svg xmlns="http://www.w3.org/2000/svg" viewBox="0 0 280 180" role="img" aria-labelledby="title">
  <title id="title">Partnership approach</title>
  <circle cx="140" cy="94" r="64" fill="#e9eef4"/>
  <rect x="54" y="56" width="64" height="62" rx="18" fill="#ffc94d"/>
  <circle cx="86" cy="62" r="22" fill="#ffd7bf"/>
  <path d="M64 58c8-19 38-20 47-2 3 6 3 12 2 18-15-6-31-11-49-16z" fill="#28384a"/>
  <rect x="162" y="56" width="64" height="62" rx="18" fill="#155a9c"/>
  <circle cx="194" cy="62" r="22" fill="#ffd7bf"/>
  <path d="M172 60c8-20 39-22 49-3 3 6 3 12 1 18-15-6-32-11-50-15z" fill="#28384a"/>
  <path d="M111 112c14-12 30-12 44 0" fill="none" stroke="#ec6b1f" stroke-width="12" stroke-linecap="round"/>
  <path d="M121 112l26 26c7 7 18 7 25 0l26-26" fill="none" stroke="#0c447c" stroke-width="13" stroke-linecap="round" stroke-linejoin="round"/>
  <path d="M82 129h116" stroke="#cfd8e3" stroke-width="6" stroke-linecap="round"/>
</svg>
